<?xml version="1.0" encoding="UTF-8" standalone="no"?>
<!-- Generator: Adobe Illustrator 16.0.0, SVG Export Plug-In . SVG Version: 6.00 Build 0)  -->

<svg
   xmlns:dc="http://purl.org/dc/elements/1.1/"
   xmlns:cc="http://creativecommons.org/ns#"
   xmlns:rdf="http://www.w3.org/1999/02/22-rdf-syntax-ns#"
   xmlns:svg="http://www.w3.org/2000/svg"
   xmlns="http://www.w3.org/2000/svg"
   xmlns:xlink="http://www.w3.org/1999/xlink"
   xmlns:sodipodi="http://sodipodi.sourceforge.net/DTD/sodipodi-0.dtd"
   xmlns:inkscape="http://www.inkscape.org/namespaces/inkscape"
   version="1.1"
   id="Capa_1"
   x="0px"
   y="0px"
   width="512px"
   height="512px"
   viewBox="0 0 512 512"
   style="enable-background:new 0 0 512 512;"
   xml:space="preserve"
   inkscape:version="0.91 r13725"
   sodipodi:docname="Simpleicons_Interface_gear-wheel-in-black.svg"><metadata
     id="metadata41"><rdf:RDF><cc:Work
         rdf:about=""><dc:format>image/svg+xml</dc:format><dc:type
           rdf:resource="http://purl.org/dc/dcmitype/StillImage" /></cc:Work></rdf:RDF></metadata><defs
     id="defs39"><linearGradient
       inkscape:collect="always"
       id="linearGradient4177"><stop
         style="stop-color:#494949;stop-opacity:0.76025236"
         offset="0"
         id="stop4179" /><stop
         style="stop-color:#494949;stop-opacity:0.93059939"
         offset="1"
         id="stop4181" /></linearGradient><radialGradient
       inkscape:collect="always"
       xlink:href="#linearGradient4177"
       id="radialGradient4185"
       cx="256.00049"
       cy="256"
       fx="256.00049"
       fy="256"
       r="253.6965"
       gradientTransform="matrix(-0.67039682,1.1749706,-0.7379996,-0.42107653,616.5503,63.002528)"
       gradientUnits="userSpaceOnUse" /><radialGradient
       inkscape:collect="always"
       xlink:href="#linearGradient4177"
       id="radialGradient4187"
       gradientUnits="userSpaceOnUse"
       gradientTransform="matrix(-0.67039682,1.1749706,-0.7379996,-0.42107653,616.5503,63.002528)"
       cx="256.00049"
       cy="256"
       fx="256.00049"
       fy="256"
       r="253.6965" /></defs><sodipodi:namedview
     pagecolor="#ffffff"
     bordercolor="#666666"
     borderopacity="1"
     objecttolerance="10"
     gridtolerance="10"
     guidetolerance="10"
     inkscape:pageopacity="0"
     inkscape:pageshadow="2"
     inkscape:window-width="1366"
     inkscape:window-height="725"
     id="namedview37"
     showgrid="false"
     inkscape:zoom="0.4609375"
     inkscape:cx="-55.322034"
     inkscape:cy="256"
     inkscape:window-x="0"
     inkscape:window-y="21"
     inkscape:window-maximized="1"
     inkscape:current-layer="Capa_1" /><g
     id="g3"
     transform="matrix(0.13137553,0.89533359,-0.91207473,0.12896413,463.45273,-7.3054114)"
     style="fill:url(#radialGradient4185);fill-opacity:1"><path
       d="m 448.007,256 c 0,-12 -1.25,-23.656 -3.344,-35.031 l 65.031,-37.531 -64,-110.875 -65.031,37.563 C 362.944,95 342.413,83.094 320.007,75.156 l 0,-75.156 -128,0 0,75.156 C 169.585,83.094 149.069,95 131.351,110.125 L 66.304,72.563 2.304,183.438 67.351,221 c -2.109,11.344 -3.344,23 -3.344,35 0,11.969 1.234,23.625 3.344,35 l -65.047,37.562 64,110.875 65.063,-37.562 c 17.719,15.156 38.219,27.031 60.641,34.969 l 0,75.156 128,0 0,-75.156 c 22.406,-7.938 42.939,-19.812 60.625,-34.969 l 65.064,37.562 64,-110.875 -65.031,-37.53 c 2.091,-11.376 3.341,-23.063 3.341,-35.032 z m -192.001,96 c -53.031,0 -96,-42.969 -96,-96 0,-53.031 42.969,-96 96,-96 53.032,0 96,42.969 96,96 0,53.031 -42.968,96 -96,96 z"
       id="path5"
       inkscape:connector-curvature="0"
       style="fill:url(#radialGradient4187);fill-opacity:1" /></g><g
     id="g7" /><g
     id="g9" /><g
     id="g11" /><g
     id="g13" /><g
     id="g15" /><g
     id="g17" /><g
     id="g19" /><g
     id="g21" /><g
     id="g23" /><g
     id="g25" /><g
     id="g27" /><g
     id="g29" /><g
     id="g31" /><g
     id="g33" /><g
     id="g35" /></svg>