<?xml version="1.0" encoding="UTF-8" standalone="no"?>
<svg
   xmlns:dc="http://purl.org/dc/elements/1.1/"
   xmlns:cc="http://creativecommons.org/ns#"
   xmlns:rdf="http://www.w3.org/1999/02/22-rdf-syntax-ns#"
   xmlns:svg="http://www.w3.org/2000/svg"
   xmlns="http://www.w3.org/2000/svg"
   xmlns:xlink="http://www.w3.org/1999/xlink"
   xmlns:sodipodi="http://sodipodi.sourceforge.net/DTD/sodipodi-0.dtd"
   xmlns:inkscape="http://www.inkscape.org/namespaces/inkscape"
   id="svg5913"
   height="250"
   width="250"
   version="1.0"
   inkscape:version="0.91 r13725"
   sodipodi:docname="Pictogram_voting_question.svg">
  <metadata
     id="metadata12">
    <rdf:RDF>
      <cc:Work
         rdf:about="">
        <dc:format>image/svg+xml</dc:format>
        <dc:type
           rdf:resource="http://purl.org/dc/dcmitype/StillImage" />
      </cc:Work>
    </rdf:RDF>
  </metadata>
  <sodipodi:namedview
     pagecolor="#ffffff"
     bordercolor="#666666"
     borderopacity="1"
     objecttolerance="10"
     gridtolerance="10"
     guidetolerance="10"
     inkscape:pageopacity="0"
     inkscape:pageshadow="2"
     inkscape:window-width="1366"
     inkscape:window-height="725"
     id="namedview10"
     showgrid="false"
     inkscape:zoom="0.6675088"
     inkscape:cx="-42.074343"
     inkscape:cy="-3.2812992"
     inkscape:window-x="0"
     inkscape:window-y="21"
     inkscape:window-maximized="1"
     inkscape:current-layer="svg5913" />
  <defs
     id="defs5915">
    <linearGradient
       inkscape:collect="always"
       id="linearGradient5666">
      <stop
         style="stop-color:#00e2ff;stop-opacity:1;"
         offset="0"
         id="stop5668" />
      <stop
         style="stop-color:#1cc0d5;stop-opacity:0"
         offset="1"
         id="stop5670" />
    </linearGradient>
    <linearGradient
       id="linearGradient7782"
       y2="583.36"
       gradientUnits="userSpaceOnUse"
       x2="346.5"
       gradientTransform="matrix(1.7103 0 0 1.7103 -342.93 -748.03)"
       y1="437.36"
       x1="200.5">
      <stop
         id="stop8411"
         stop-color="#fff"
         stop-opacity=".65934"
         offset="0" />
      <stop
         id="stop8413"
         stop-color="#fff"
         stop-opacity="0"
         offset="1" />
    </linearGradient>
    <linearGradient
       inkscape:collect="always"
       xlink:href="#linearGradient5666"
       id="linearGradient5672"
       x1="211.20317"
       y1="235.67996"
       x2="-151.82283"
       y2="-53.454803"
       gradientUnits="userSpaceOnUse" />
  </defs>
  <path
     id="path11323"
     stroke-linejoin="round"
     d="m237.73 125.03c0 62.08-50.32 112.41-112.4 112.41-62.076 0-112.4-50.33-112.4-112.41 0-62.074 50.324-112.4 112.4-112.4 62.08 0.002 112.4 50.326 112.4 112.4z"
     fill-rule="evenodd"
     stroke="#555753"
     stroke-linecap="round"
     stroke-width="24.303"
     fill="#d3d7cf" />
  <path
     id="path11325"
     d="m249.67 124.82c0 68.95-55.9 124.85-124.85 124.85-68.951 0-124.85-55.9-124.85-124.85 0.002828-68.95 55.899-124.85 124.85-124.85 68.95 0.002993 124.85 55.9 124.85 124.85z"
     fill-rule="evenodd"
     fill="url(#linearGradient7782)"
     style="fill:url(#linearGradient5672);fill-opacity:1" />
  <path
     id="text11327"
     fill="#555753"
     d="m114.27 166.72c-0.08-2.65-0.12-4.63-0.12-5.95 0-7.79 1.18-14.52 3.52-20.18 1.72-4.26 4.5-8.56 8.33-12.9 2.81-3.16 7.85-7.75 15.12-13.78 7.35-6.1 12.12-10.95 14.31-14.549 2.19-3.601 3.28-7.533 3.28-11.795 0-7.717-3.2-14.479-9.61-20.285-6.41-5.879-14.27-8.819-23.57-8.819-8.99 0-16.5 2.646-22.52 7.937-6.014 5.292-9.962 13.56-11.838 24.805l-21.692-2.426c1.954-15.066 7.739-26.604 17.354-34.615 9.693-8.011 22.476-12.016 38.346-12.017 16.8 0.001 30.21 4.3 40.21 12.899 10.01 8.599 15.01 18.998 15.01 31.198 0 7.055-1.76 13.559-5.27 19.517-3.52 5.95-10.4 13.19-20.64 21.71-6.88 5.74-11.37 9.96-13.48 12.68-2.12 2.72-3.68 5.84-4.69 9.37-1.02 3.53-1.61 9.26-1.76 17.2h-20.29m-1.29 39.8v-22.6h24.04v22.6h-24.04"
     style="fill:#43793d;fill-opacity:1" />
</svg>
